<?xml version="1.0" encoding="iso-8859-1"?>
<!-- Uploaded to: SVG Repo, www.svgrepo.com, Generator: SVG Repo Mixer Tools -->
<svg height="800px" width="800px" version="1.1" id="Layer_1" xmlns="http://www.w3.org/2000/svg" xmlns:xlink="http://www.w3.org/1999/xlink" 
	 viewBox="0 0 512 512" xml:space="preserve">
<path style="fill:#BDDEFF;" d="M172.522,111.304c-9.217,0-16.696-7.473-16.696-16.696V50.087c0-9.206-7.49-16.696-16.696-16.696
	H38.957c-9.217,0-16.696-7.473-16.696-16.696S29.739,0,38.957,0H139.13c27.619,0,50.087,22.468,50.087,50.087v44.522
	C189.217,103.831,181.739,111.304,172.522,111.304z"/>
<path style="fill:#736056;" d="M205.913,178.087H139.13c-9.217,0-16.696-7.473-16.696-16.696V94.609
	c0-9.223,7.479-16.696,16.696-16.696h66.783c9.217,0,16.696,7.473,16.696,16.696v66.783
	C222.609,170.614,215.13,178.087,205.913,178.087z"/>
<path style="fill:#665247;" d="M205.913,77.913h-33.391v100.174h33.391c9.217,0,16.696-7.473,16.696-16.696V94.609
	C222.609,85.386,215.13,77.913,205.913,77.913z"/>
<path style="fill:#E6563A;" d="M406.261,178.087h-66.783c-9.217,0-16.696-7.473-16.696-16.696s7.479-16.696,16.696-16.696h66.783
	c9.217,0,16.696,7.473,16.696,16.696S415.478,178.087,406.261,178.087z M439.652,77.913H306.087c-12.811,0-24.531,4.842-33.391,12.8
	C262.456,99.885,256,113.197,256,128v16.696H105.739c-27.615,0-50.087,22.472-50.087,50.087v267.13
	c0,27.615,22.472,50.087,50.087,50.087h333.913c27.615,0,50.087-22.472,50.087-50.087V128
	C489.739,100.385,467.267,77.913,439.652,77.913z"/>
<path style="fill:#D9472B;" d="M406.261,178.087h-66.783c-9.217,0-16.696-7.473-16.696-16.696s7.479-16.696,16.696-16.696h66.783
	c9.217,0,16.696,7.473,16.696,16.696S415.478,178.087,406.261,178.087z M439.652,77.913H306.087c-12.811,0-24.531,4.842-33.391,12.8
	V512h166.957c27.615,0,50.087-22.472,50.087-50.087V128C489.739,100.385,467.267,77.913,439.652,77.913z"/>
<path style="fill:#FFE14D;" d="M296.304,328.348l88.37-88.37c6.521-6.516,6.521-17.092,0-23.609c-6.521-6.521-17.087-6.521-23.609,0
	l-88.37,88.37l-88.37-88.37c-6.521-6.521-17.087-6.521-23.609,0c-6.521,6.516-6.521,17.092,0,23.609l88.37,88.37l-88.37,88.37
	c-6.521,6.516-6.521,17.092,0,23.609c3.261,3.261,7.533,4.892,11.804,4.892s8.544-1.631,11.804-4.892l88.371-88.37l88.37,88.37
	c3.261,3.261,7.533,4.892,11.804,4.892s8.544-1.631,11.804-4.892c6.521-6.516,6.521-17.092,0-23.609L296.304,328.348z"/>
<path style="fill:#FFCC33;" d="M361.066,440.326c3.261,3.261,7.533,4.892,11.804,4.892s8.544-1.631,11.804-4.892
	c6.521-6.516,6.521-17.092,0-23.609l-88.369-88.369l88.37-88.37c6.521-6.516,6.521-17.092,0-23.609
	c-6.521-6.521-17.087-6.521-23.609,0l-88.37,88.37v47.218L361.066,440.326z"/>
</svg>